# xmcd CD database file
#
# Track frame offsets:
#	150
#	21187
#	40800
#	55937
#	80760
#	101700
#	121617
#	142805
#	163475
#	184925
#	222427
#
# Disc length: 3043 seconds
#
# Revision: 0
# Processed by: cddbd v1.5.1PL2 Copyright (c) Steve Scherf et al.
# Submitted via: CDex 1.51
#
DISCID=9a0be10b
DTITLE=Springs - Springs Super Best
DYEAR=2003
DGENRE=JPop
TTITLE0=DOWN TOWN
TTITLE1=木枯しに抱かれて
TTITLE2=赤いスイートピー
TTITLE3=TIMEシャワーに射たれて
TTITLE4=お嫁に行きたい
TTITLE5=雨
TTITLE6=春よ、来い (Solo performance by Yuuki Yoshida)
TTITLE7=あゝ無情 (Solo performance by Ayaka Ito)
TTITLE8=好きになって、よかった (Solo performance by Aya Hirano)
TTITLE9=Raspberry Dream (Album mix)
TTITLE10=スクリンセーバー3種のうち1種
EXTD=YEAR: 2003
EXTT0=
EXTT1=
EXTT2=
EXTT3=
EXTT4=
EXTT5=
EXTT6=
EXTT7=
EXTT8=
EXTT9=
EXTT10=
PLAYORDER=
